<?xml version="1.0" encoding="utf-8"?>
<!-- Svg Vector Icons : http://www.onlinewebfonts.com/icon -->
<!DOCTYPE svg PUBLIC "-//W3C//DTD SVG 1.1//EN" "http://www.w3.org/Graphics/SVG/1.1/DTD/svg11.dtd">
<svg version="1.1" xmlns="http://www.w3.org/2000/svg" xmlns:xlink="http://www.w3.org/1999/xlink" x="0px" y="0px" viewBox="0 0 1000 1000" enable-background="new 0 0 1000 1000" xml:space="preserve">
<metadata> Svg Vector Icons : http://www.onlinewebfonts.com/icon </metadata>
<g><g transform="translate(0.000000,511.000000) scale(0.100000,-0.100000)"><path d="M2452.5,4985c-10.4-14.6-75-208.5-141.8-427.3l-120.9-402.3H2046c-77.1,0-160.5-10.4-183.4-20.8c-89.6-50-14.6-187.6,100.1-187.6c43.8,0,47.9-6.3,35.4-81.3c-22.9-139.7,39.6-304.3,162.6-423.2c56.3-54.2,131.3-156.3,164.7-223c33.4-66.7,98-164.7,143.8-216.8c68.8-77.1,81.3-104.2,70.9-156.3c-12.5-58.4-35.4-70.9-402.3-221c-212.6-87.6-427.3-179.3-475.3-204.3c-206.4-100.1-387.7-327.3-464.9-575.3c-39.6-127.2-41.7-196-41.7-1419.6V-862.1l-123-33.3c-223-62.5-412.7-256.4-458.6-473.2c-31.3-143.8-31.3-3320.7-2.1-3379c29.2-54.2,137.6-54.2,166.8,0c14.6,27.1,20.8,598.2,20.8,1703c0,1651,0,1663.5,43.8,1755.2c50,102.2,162.6,187.6,275.2,206.4l75,12.5l6.3-279.3l6.2-279.3l118.8,2.1c158.4,4.2,316.8,91.7,396.1,218.9c52.1,83.4,64.6,148,145.9,769.2l89.6,677.5l6.3-302.3c4.2-200.1-2.1-316.9-18.8-348.1c-18.8-35.4-12.5-466.9,22.9-1849l45.9-1805.2l-66.7-77.1c-77.1-87.6-114.7-166.8-135.5-289.7c-25-154.3-18.8-156.3,558.7-150.1l502.4,6.3l25,52.1c16.7,33.3,39.6,314.8,62.5,756.7c20.8,387.7,41.7,708.7,50,712.9c8.3,4.2,29.2-298.1,50-673.3c41.7-792.1,43.8-810.9,95.9-838c22.9-12.5,235.6-20.8,519-20.8c550.3,0,558.7,2.1,531.6,154.3c-12.5,79.2-77.1,223-137.6,308.5c-31.3,43.8,54.2,3537.5,87.6,3602.1c12.5,20.8,20.8,208.5,22.9,431.5l2.1,391.9l91.7-687.9c52.1-377.3,104.2-715,116.7-750.4c43.8-108.4,158.4-214.7,279.3-260.6c148-54.2,250.1-54.2,279.3-2.1c14.6,27.1,20.8,571.2,20.8,1617.6c0,1494.6-2.1,1580.1-39.6,1653c-20.8,41.7-58.4,139.7-83.4,218.9c-73,218.9-227.2,402.3-441.9,525.3c-83.4,45.9-91.7,45.9-116.7,14.6c-22.9-33.4-25-31.3-27.1,6.3c0,35.4-60.4,68.8-348.1,187.6c-193.9,79.2-362.7,152.2-375.2,162.6c-54.2,39.6-31.3,166.8,48,275.2c41.7,58.4,95.9,148,123,204.3c27.1,56.3,77.1,118.8,116.7,145.9c104.2,66.7,191.8,256.4,193.9,412.7c2.1,95.9,8.3,123,33.4,123c56.3,0,125.1,62.5,125.1,114.6c0,68.8-56.3,93.8-216.8,93.8h-135.5l-129.2,402.3c-68.8,218.9-137.6,412.7-148,427.3c-16.7,18.8-148,25-527.4,25S2469.1,5003.7,2452.5,4985z M3484.3,4495.1l104.2-329.4l-594.1-6.3c-327.3-2.1-598.3-2.1-602.4,2.1c-2.1,4.2,37.5,154.3,91.7,333.5l98,327.3h398.1h400.2L3484.3,4495.1z M3772,3911.4c29.2-27.1,33.4-58.4,22.9-139.7c-14.6-125.1-66.7-202.2-150.1-225.1c-50-12.5-73-41.7-131.3-175.1c-98-216.8-202.2-343.9-337.7-412.7c-175.1-85.5-310.6-68.8-471.1,62.5c-106.3,87.5-195.9,216.8-248.1,360.6c-43.8,116.7-81.3,164.7-139.7,173c-106.3,16.7-183.4,266.8-108.4,350.2c35.4,39.6,66.7,41.7,783.8,41.7C3663.6,3946.9,3740.7,3942.7,3772,3911.4z M2948.6,2706.6c70.9-10.4,129.2-2.1,218.9,27.1c68.8,22.9,125.1,41.7,125.1,39.6c35.4-127.2,25-118.8,510.7-318.9c640-264.7,710.8-321,854.7-696.2l83.4-218.9V55.1c0-1023.5-6.3-1486.3-20.8-1486.3c-45.9,0-141.7,62.5-175.1,114.6c-27.1,39.6-83.4,419-225.1,1486.3c-102.1,788-198,1444.6-208.5,1459.2c-27.1,31.3-104.2,33.4-137.6,0c-18.8-18.8-25-296-25-1115.2V-576.6H3032h-917.2V505.3c0,596.2-6.2,1096.5-12.5,1115.2c-20.8,54.2-131.3,43.8-152.2-12.5c-8.3-27.1-98-671.2-198-1434.2c-100.1-762.9-191.8-1411.2-204.3-1444.6c-27.1-70.9-131.3-160.5-185.5-160.5c-39.6,0-39.6,33.3-39.6,1517.5c0,1302.8,4.2,1534.2,31.3,1640.5c47.9,181.4,106.3,285.6,227.2,404.4c95.9,95.9,150.1,123,596.2,308.5c448.2,187.6,492,210.5,519.1,268.9c27.1,64.6,31.3,64.6,93.8,39.6C2825.6,2733.7,2896.5,2714.9,2948.6,2706.6z M3907.5-883c0-66.7-18.8-796.3-41.7-1621.8s-41.7-1534.2-41.7-1575.9v-77.1l-135.5,12.5c-154.3,10.4-281.4-27.1-387.7-114.6c-33.4-29.2-64.6-50-68.8-45.9c-4.2,4.2-41.7,608.7-83.4,1342.5c-41.7,733.8-83.4,1367.4-91.7,1407.1c-12.5,62.5-22.9,73-83.4,79.2c-89.6,8.3-100.1-22.9-114.7-360.6c-16.7-331.4-137.6-2361.8-145.9-2411.8c-4.2-31.3-16.7-27.1-93.8,25c-98,64.6-218.9,91.7-366.9,79.2c-52.1-4.2-95.9-6.3-95.9-6.3c-4.2,2.1-83.4,3074.7-83.4,3206v181.4h917.2h917.2V-883z M2506.7-4385c64.6-31.3,129.2-104.2,156.3-177.2c12.5-35.4-12.5-37.5-339.8-37.5c-391.9,0-400.2,4.2-300.2,123C2141.9-4335,2321.1-4301.6,2506.7-4385z M3717.8-4351.6c79.2-16.7,120.9-41.7,177.2-104.2c129.2-139.7,120.9-143.8-268.9-143.8c-189.7,0-344,6.3-344,16.7c0,35.4,85.5,150.1,135.5,183.4c29.2,18.8,83.4,41.7,120.9,50c35.4,10.4,68.8,16.7,70.9,18.8C3611.5-4328.7,3661.5-4339.1,3717.8-4351.6z"/><path d="M6934.2,4968.3c-70.9-43.8-150.1-154.3-150.1-212.6c0-18.8-58.3-75-129.2-125.1c-70.9-50-164.7-137.6-208.4-193.9c-85.5-112.6-162.6-323.1-162.6-446.1c0-50-12.5-83.4-37.5-100.1c-58.4-35.4-108.4-156.3-108.4-260.6c0-116.7,79.2-285.6,173-362.7c39.6-33.4,95.9-108.4,125.1-166.8c29.2-58.4,87.5-150.1,127.1-202.2c114.6-150.1,102.1-164.7-300.2-337.7c-195.9-81.3-381.4-177.2-437.7-221c-198-156.3-316.8-362.7-366.9-640c-31.3-181.4-243.9-3122.6-233.4-3247.7l6.2-81.3l118.8,2.1c158.4,4.2,316.8,91.7,398.1,218.9c52.1,87.5,64.6,148,156.3,842.2l98,750.4l6.3-329.4c4.2-243.9-6.3-410.7-37.5-635.8C5948.2-949.7,5869-1598,5794-2221.2c-98-817.1-129.2-1142.3-112.6-1171.5c18.8-35.4,45.9-39.6,258.5-39.6c131.3,0,239.7-2.1,239.7-4.2c2.1-4.2,29.2-231.4,60.5-506.5l60.5-500.3l-41.7-81.3c-50-98-58.4-216.8-16.7-243.9c16.7-10.4,183.5-18.8,366.9-18.8c256.4,0,341.9,6.2,360.6,27.1c25,31.3,33.4,168.9,54.2,754.6c16.7,500.3,25,573.2,70.9,573.2c41.7,0,50-104.2,77.1-892.2c12.5-306.4,23-410.7,43.8-433.6c39.6-39.6,692-43.8,731.7-4.2c37.5,37.5,29.2,143.8-18.8,235.6l-43.8,81.3l58.3,506.5l58.4,504.5l237.7,6.2c195.9,4.2,243.9,12.5,260.6,41.7c25,39.6-27.1,529.5-208.5,1955.3c-91.7,719.2-118.8,979.7-123,1261.1c-4.2,239.7,0,333.5,12.5,291.8c10.4-33.3,58.4-362.7,104.2-729.6c50-385.6,100.1-700.4,118.8-746.3c64.6-150.1,281.4-285.6,456.5-285.6c106.3,0,116.8,27.1,95.9,304.3c-10.4,137.6-16.7,250.1-14.6,252.2c0,2.1,41.7-14.6,91.7-39.6c52.1-25,112.6-79.2,143.8-127.1l56.3-85.5l10.4-1698.9c6.3-935.9,18.8-1713.5,27.1-1726c27.1-43.8,135.5-33.3,160.5,14.6c14.6,27.1,20.8,567,16.7,1713.5l-6.3,1673.9l-58.3,118.8c-70.9,143.8-212.6,275.2-352.3,325.2c-68.8,22.9-104.2,50-110.5,77.1c-4.2,22.9-45.8,600.3-93.8,1282c-52.1,765-97.9,1288.2-116.7,1367.5c-60.5,241.8-231.4,464.8-448.2,587.8c-102.1,58.4-112.6,60.5-137.6,29.2c-22.9-33.4-25-31.3-27.1,6.3c0,33.4-54.2,64.6-264.7,156.3l-266.8,116.7l-6.2,77.1c-4.2,56.3,8.3,98,54.2,164.7c33.3,50,77.1,123,97.9,162.6c20.8,39.6,81.3,114.6,137.6,166.8c73,70.9,106.3,123,131.3,206.4c52.1,177.2,37.5,271-58.4,377.3c-33.3,35.4-54.2,95.9-68.8,198c-12.5,81.3-43.8,191.8-68.8,246c-62.5,133.4-204.3,287.7-321,350.2c-64.6,33.3-95.9,62.5-95.9,91.7c0,116.7-160.5,260.6-291.8,260.6C7036.3,5010,6971.7,4991.2,6934.2,4968.3z M7155.2,4795.3c12.5-14.6,25-70.9,29.2-125.1l6.2-100.1l125.1-50c158.4-64.6,289.8-200.1,333.5-350.2c16.7-58.4,31.3-179.3,31.3-271v-164.7l-87.5,14.6c-210.5,35.4-404.4,129.2-587.9,281.4c-54.2,45.9-112.5,83.4-129.2,83.4c-14.6,0-54.2-33.4-85.5-73c-52.1-66.7-223.1-198-256.4-198c-18.8,0-62.5,131.3-62.5,189.7c0,175.1,156.3,400.2,331.5,473.2c83.4,37.5,100.1,54.2,91.7,85.5c-6.3,25,8.3,64.6,33.3,98c25,31.3,43.8,66.7,43.8,83.4C6971.7,4822.4,7117.6,4841.2,7155.2,4795.3z M7284.4,3632.1C7419.9,3580,7643,3530,7738.8,3530c110.5,0,70.9-93.8-64.6-143.8c-31.3-12.5-62.5-39.6-68.8-58.4c-66.7-200.1-214.7-400.2-346-466.9c-95.9-47.9-277.3-56.3-354.4-16.7c-164.7,87.5-258.5,208.5-366.9,481.5c-14.6,35.4-43.8,58.4-87.6,68.8c-73,16.7-125.1,98-125.1,202.2c0,52.1,6.3,60.4,25,41.7c58.3-58.4,277.2,10.4,441.9,137.6l102.1,79.2l137.6-89.6C7107.2,3715.5,7219.8,3655.1,7284.4,3632.1z M7057.2,2596.1c87.6-6.3,141.8,2.1,216.8,35.4c54.2,25,102.1,43.8,104.2,43.8c4.2,0,12.5-22.9,18.8-50c10.4-39.6,64.6-70.9,277.3-164.7c148-62.5,308.5-131.3,360.6-152.2c314.8-123,489.9-360.6,523.2-715c18.8-191.8,177.2-2424.3,181.4-2555.6c0-33.3,10.4-152.2,20.8-260.6c10.4-108.4,16.7-202.2,10.4-208.5c-14.6-16.7-152.2,68.8-181.4,114.6c-20.8,31.3-91.7,512.8-208.5,1398.7c-98,744.2-183.4,1394.6-191.8,1444.6c-14.6,112.6-91.7,193.9-252.2,266.8c-239.7,110.5-483.6,104.2-729.6-16.7l-131.3-62.5l-129.2,62.5c-298.1,145.9-614.9,123-867.2-60.4c-106.3-77.1-137.6-131.3-108.4-185.5c14.6-29.2-20.8-352.3-135.5-1225.7c-231.4-1751-204.3-1588.4-289.7-1667.6c-87.6-81.3-137.6-87.5-137.6-20.8c0,25,52.1,731.7,112.6,1567.6C5641.8,1824.8,5646,1849.8,5775.2,2027c125.1,168.8,227.2,231.4,685.8,419c227.2,93.8,298.1,131.3,318.9,173c25,52.1,27.1,52.1,93.8,18.8C6909.2,2619,6992.6,2600.3,7057.2,2596.1z M6746.6,1653.9c41.7-12.5,133.4-60.4,202.2-106.3c133.4-89.6,133.4-89.6,252.2,4.2c102.1,81.3,233.5,123,385.6,123c150.1,0,243.9-27.1,341.9-100.1l68.8-52.1l-4.2-1002.7l-6.2-1002.7l75-573.3c41.7-314.8,114.6-896.3,160.5-1292.4c45.9-396.1,87.6-758.8,93.8-806.7l12.5-89.6H7098.9c-1192.3,0-1232,2.1-1232,39.6c0,66.7,183.5,1607.2,256.4,2138.7l66.7,500.3l2.1,1042.3c2.1,573.2,4.2,1054.8,6.3,1069.4c0,14.6,52.1,50,112.6,77.1C6429.7,1678.9,6609,1691.4,6746.6,1653.9z M7805.5-3478.2c0-27.1-20.8-225.1-45.8-444l-43.8-396.1l-102.2,6.3c-54.2,4.2-129.3-2.1-166.8-14.6c-35.5-12.5-73-16.7-81.3-8.3c-8.3,10.4-20.8,216.8-29.2,460.7l-14.6,441.9h241.8C7801.4-3432.4,7805.5-3432.4,7805.5-3478.2z M6859.1-3645c-6.2-106.3-18.7-312.7-25-458.6l-12.5-264.7l-62.5,31.3c-41.7,20.8-102.1,31.3-175.1,25l-112.6-6.3l-10.4,83.4c-6.2,45.9-25,206.4-41.7,354.4c-16.6,150.1-37.5,306.4-43.8,350.2l-12.5,77.1h254.3h252.2L6859.1-3645z M6709.1-4518.4c29.2-14.6,56.3-37.5,62.5-52.1c8.3-22.9-27.1-29.2-181.3-29.2l-191.8,2.1l58.4,50C6521.5-4491.3,6621.5-4478.8,6709.1-4518.4z M7703.4-4530.9c33.4-20.8,60.5-43.8,60.5-52.1c0-8.3-87.5-16.7-191.8-16.7l-193.9,2.1l58.4,50C7507.5-4485,7615.8-4478.8,7703.4-4530.9z"/></g></g>
</svg>